<?xml version="1.0" encoding="utf-8"?>
<!-- Generator: Adobe Illustrator 18.0.0, SVG Export Plug-In . SVG Version: 6.00 Build 0)  -->
<!DOCTYPE svg PUBLIC "-//W3C//DTD SVG 1.1//EN" "http://www.w3.org/Graphics/SVG/1.1/DTD/svg11.dtd">
<svg version="1.1" id="图层_1" xmlns="http://www.w3.org/2000/svg" xmlns:xlink="http://www.w3.org/1999/xlink" x="0px" y="0px"
	 viewBox="0 0 160 160" enable-background="new 0 0 160 160" xml:space="preserve">
<g>
	<g opacity="0.1">
		<g>
			<path d="M49.1,64.3h38.6l-12.3,38.5h2.9l12.6-39.5l10.5-32.7l10.5,32.7l12.6,39.5h2.9l-12.9-40.4l-12.1-37.8H58.9l-25.1,78.2h2.9
				L49.1,64.3z M60.9,27.5h38.6l-10.9,34H50L60.9,27.5z"/>
		</g>
		<g>
			<g>
				<path d="M108,103.3h-0.5C107.7,103.3,107.8,103.3,108,103.3L108,103.3z"/>
				<path d="M108.6,104l-0.7,0c-0.1,0-0.3,0-0.4,0v-0.6h-0.1v0h0.1v-0.6h1.1V104z"/>
			</g>
			<g>
				<polygon points="35.3,113.5 34.8,113.5 34.8,112.6 35.3,112.6 35.3,104.2 47.8,104.2 48.2,103.3 34.4,103.3 34.4,122.7 
					35.3,122.7 				"/>
				<polygon points="35.9,123.3 33.8,123.3 33.8,102.7 49.1,102.7 48.2,104.8 35.9,104.8 				"/>
			</g>
			<g>
				<polygon points="92.2,105 99.1,122.7 100.1,122.7 92.5,103.3 91.9,103.3 84.3,122.7 85.3,122.7 				"/>
				<polygon points="100.9,123.3 98.7,123.3 92.2,106.7 85.7,123.3 83.4,123.3 91.5,102.7 92.9,102.7 				"/>
			</g>
			<g>
				<path d="M62,104.2h3.4v-0.9H62c-5.1,0-9.3,4-9.6,9.1c0,0.2,0,0.4,0,0.6c0,2.8,1.1,5.2,3,7c1.7,1.7,4,2.7,6.6,2.7h0h3.3v-0.9
					l-3.3,0c-4.8,0-8.7-3.9-8.7-8.8C53.2,108.2,57.2,104.2,62,104.2z"/>
				<path d="M65.9,123.3h-4c-2.6,0-5.1-1-7-2.9c-2-2-3.2-4.6-3.2-7.4c0-0.2,0-0.4,0-0.6c0.3-5.4,4.8-9.7,10.2-9.7h4v2.1h-4
					c-4.5,0-8.1,3.7-8.1,8.2c0,4.5,3.6,8.2,8.1,8.2l3.9,0V123.3z"/>
			</g>
			<g>
				<polygon points="44.6,112.6 35.3,112.6 35.3,113.5 44.2,113.5 				"/>
				<polygon points="44.6,114.1 34.7,114.1 34.7,112 45.5,112 				"/>
			</g>
			<g>
				<rect x="34.8" y="112.6" width="0.5" height="0.9"/>
				<rect x="34.2" y="112" width="1.7" height="2.1"/>
			</g>
			<g>
				<polygon points="55.3,120 52.4,112.4 48.8,103.3 48.5,103.3 48.2,103.3 47.8,104.2 44.6,112.6 44.2,113.5 40.6,122.7 
					41.6,122.7 48.5,105 55.4,122.7 56.4,122.7 				"/>
				<polygon points="57.2,123.3 55,123.3 48.5,106.7 42,123.3 39.7,123.3 47.8,102.7 49.2,102.7 				"/>
			</g>
			<g>
				<path d="M107.5,113.4L107.5,113.4l3.6,9.3h1l-3.7-9.4C108.1,113.3,107.8,113.4,107.5,113.4z"/>
				<path d="M112.9,123.3h-2.3l-4.1-10.5h0.9c0.3,0,0.5,0,0.8-0.1l0.5-0.1L112.9,123.3z"/>
			</g>
			<g>
				<path d="M108.4,113.3l-0.1-0.3l-0.8,0.3l0,0.1h0.1C107.8,113.4,108.1,113.3,108.4,113.3z"/>
				<path d="M107.5,114H107l-0.4-1.1l2-0.8l0.6,1.6l-0.7,0.1C108.2,114,107.8,114,107.5,114z"/>
			</g>
			<g>
				<path d="M110.2,104.2c-0.6-0.5-1.4-0.8-2.2-0.9c-0.2,0-0.3,0-0.5,0h-7.4v19.4h0.9v-9.3h6.5l0-0.1l0.8-0.3l0.1,0.3
					c2-0.4,3.5-2.2,3.5-4.3v-1.2C111.9,106.3,111.2,105,110.2,104.2z M111,109c0,1.9-1.6,3.5-3.5,3.5H101v-8.2h6.5
					c1.9,0,3.5,1.6,3.5,3.5V109z"/>
				<path d="M101.6,123.3h-2.1v-20.6h8c0.2,0,0.3,0,0.5,0c0.9,0.1,1.8,0.4,2.5,1c1.2,1,2,2.4,2,4v1.2c0,2.4-1.7,4.4-4,4.9l-0.2,0
					l0,0.1h-6.8V123.3z M101.6,111.9h5.9c1.6,0,2.9-1.3,2.9-2.9v-1.2c0-1.6-1.3-2.9-2.9-2.9h-5.9V111.9z"/>
			</g>
			<g>
				<path d="M108,103.3L108,103.3c0.8,0.1,1.6,0.4,2.2,0.9h8.7v18.5h0.9v-18.5h7.1v-0.9H108z"/>
				<path d="M120.4,123.3h-2.1v-18.5H110l-0.2-0.1c-0.6-0.4-1.2-0.7-1.9-0.8l-0.5-0.1v-1.2l0.6,0h19.5v2.1h-7.1V123.3z"/>
			</g>
			<g>
				<polygon points="80.5,104.2 80.9,103.3 65.3,103.3 65.3,103.9 65.3,104.9 65.3,121.1 65.3,122.1 65.3,122.7 73.3,122.7 
					74.3,122.7 74.7,121.8 73.7,121.8 66.2,121.8 66.2,113.5 76.9,113.5 77.9,113.5 78.3,112.6 77.3,112.6 66.2,112.6 66.2,104.2 
									"/>
				<polygon points="74.7,123.3 64.7,123.3 64.7,102.7 81.8,102.7 80.9,104.8 66.8,104.8 66.8,112 79.1,112 78.3,114.1 66.8,114.1 
					66.8,121.2 75.5,121.2 				"/>
			</g>
		</g>
	</g>
</g>
</svg>
