<?xml version="1.0" encoding="iso-8859-1"?>
<!-- Generator: Adobe Illustrator 18.0.0, SVG Export Plug-In . SVG Version: 6.00 Build 0)  -->
<!DOCTYPE svg PUBLIC "-//W3C//DTD SVG 1.1//EN" "http://www.w3.org/Graphics/SVG/1.1/DTD/svg11.dtd">
<svg version="1.1" id="Capa_1" xmlns="http://www.w3.org/2000/svg" xmlns:xlink="http://www.w3.org/1999/xlink" x="0px" y="0px"
	 viewBox="0 0 32 32" style="enable-background:new 0 0 32 32;" xml:space="preserve">
<g id="cancel">
	<g>
		<path style="fill-rule:evenodd;clip-rule:evenodd;" d="M16,0C7.163,0,0,7.163,0,16c0,8.837,7.163,16,16,16c8.836,0,16-7.163,16-16
			C32,7.163,24.837,0,16,0z M16,30C8.268,30,2,23.732,2,16C2,8.268,8.268,2,16,2c7.732,0,14,6.268,14,14C30,23.732,23.732,30,16,30z
			 M22.715,9.285c-0.381-0.381-1-0.381-1.381,0L16,14.619l-5.334-5.334c-0.381-0.381-1-0.381-1.381,0c-0.381,0.381-0.381,1,0,1.381
			L14.619,16l-5.333,5.334c-0.381,0.381-0.381,1,0,1.381c0.381,0.381,1,0.381,1.381,0L16,17.381l5.334,5.334
			c0.381,0.381,1,0.381,1.381,0c0.381-0.381,0.381-1,0-1.381L17.381,16l5.334-5.334C23.096,10.285,23.096,9.667,22.715,9.285z"/>
	</g>
</g>
<g>
</g>
<g>
</g>
<g>
</g>
<g>
</g>
<g>
</g>
<g>
</g>
<g>
</g>
<g>
</g>
<g>
</g>
<g>
</g>
<g>
</g>
<g>
</g>
<g>
</g>
<g>
</g>
<g>
</g>
</svg>
